<svg xmlns="http://www.w3.org/2000/svg" viewBox="0 0 500 500">
  <g>
    <path fill="#f2f2f2" d="M91.4,442.6c-23.6-24.3-15.3-68.9,18.8-99.9s79.2-35.8,102.8-11.5c10.5,10.8,15.2,25.6,13.8,41.3
      c-1.5,16.6-9.2,33.1-21.6,45.9c-24.2,24.9-60.8,35.9-91.2,31.3C103.4,448.1,96.2,447.6,91.4,442.6z"/>
    <path fill="#3b82f6" d="M200.6,397.9c0,0-29.7-22.3-59-20.5c-29.3,1.8-48.9,24.6-48.9,24.6s19.6-22.8,48.9-24.6
      C170.9,375.6,200.6,397.9,200.6,397.9z"/>
    <path fill="#3b82f6" d="M176.8,375.3c0,0-12.1-35.2-39.4-50.7c-27.3-15.5-54.9-6.6-54.9-6.6s27.6-8.9,54.9,6.6
      C164.7,340.1,176.8,375.3,176.8,375.3z"/>
  </g>
  <g>
    <path fill="#f2f2f2" d="M316.4,442.6c23.6-24.3,15.3-68.9-18.8-99.9s-79.2-35.8-102.8-11.5c-10.5,10.8-15.2,25.6-13.8,41.3
      c1.5,16.6,9.2,33.1,21.6,45.9c24.2,24.9,60.8,35.9,91.2,31.3C304.4,448.1,311.6,447.6,316.4,442.6z"/>
    <path fill="#3b82f6" d="M207.2,397.9c0,0,29.7-22.3,59-20.5c29.3,1.8,48.9,24.6,48.9,24.6s-19.6-22.8-48.9-24.6
      C236.9,375.6,207.2,397.9,207.2,397.9z"/>
    <path fill="#3b82f6" d="M231,375.3c0,0,12.1-35.2,39.4-50.7c27.3-15.5,54.9-6.6,54.9-6.6s-27.6-8.9-54.9,6.6
      C243.1,340.1,231,375.3,231,375.3z"/>
  </g>
  <text transform="matrix(1 0 0 1 150 250)" fill="#3b82f6" font-family="Arial" font-weight="bold" font-size="150">404</text>
</svg> 